<?xml version="1.0" standalone="no"?>
<!DOCTYPE svg PUBLIC "-//W3C//DTD SVG 20010904//EN"
 "http://www.w3.org/TR/2001/REC-SVG-20010904/DTD/svg10.dtd">
<svg version="1.0" xmlns="http://www.w3.org/2000/svg"
 width="460.000000pt" height="460.000000pt" viewBox="0 0 460.000000 460.000000"
 preserveAspectRatio="xMidYMid meet">
<metadata>
Created by potrace 1.14, written by Peter Selinger 2001-2017
</metadata>
<g transform="translate(0.000000,460.000000) scale(0.100000,-0.100000)"
fill="#000000" stroke="none">
<path d="M1985 4212 c-99 -18 -244 -60 -305 -89 -196 -94 -359 -230 -484 -407
-53 -75 -162 -280 -191 -361 -10 -27 -22 -55 -26 -61 -7 -9 -33 -108 -45 -171
-2 -12 -8 -33 -13 -45 -4 -13 -9 -54 -10 -93 -2 -38 -4 -72 -6 -76 -3 -3 -7
-35 -9 -70 -9 -109 -16 -182 -22 -229 -5 -39 -5 -299 -1 -735 1 -134 -6 -223
-23 -314 -9 -51 -12 -78 -25 -236 -3 -38 -8 -90 -11 -115 -2 -25 -6 -72 -8
-105 -9 -128 -18 -252 -22 -285 -2 -19 -6 -118 -10 -220 -5 -156 -8 -187 -22
-199 -20 -16 -82 -44 -99 -45 -7 -1 -13 -5 -14 -11 -1 -16 -30 -44 -62 -60
-36 -18 -40 -18 -31 -4 4 7 -1 10 -12 7 -11 -1 -28 -21 -39 -43 -11 -22 -34
-55 -51 -73 -33 -35 -68 -99 -79 -144 l-7 -28 1966 0 1966 0 0 21 c0 26 -21
111 -30 124 -4 6 -18 42 -30 80 -13 39 -31 89 -41 113 -10 23 -18 43 -17 45 2
5 -45 93 -65 119 -11 15 -32 32 -46 38 -14 6 -34 23 -45 38 -25 36 -86 79
-133 91 l-39 11 3 107 c2 60 5 164 7 233 2 69 8 190 12 270 15 237 11 1071 -4
1165 -21 127 -21 129 -27 191 -8 80 -24 181 -36 227 -6 21 -12 50 -14 65 -2
15 -8 52 -14 82 -6 30 -12 67 -15 82 -3 15 -7 32 -10 37 -4 5 -15 45 -27 88
-11 43 -25 94 -30 113 -5 19 -11 42 -14 50 -2 8 -11 35 -19 59 -24 64 -21 79
35 186 45 87 64 153 48 169 -5 5 -131 -40 -204 -73 -43 -20 -41 -21 -89 44
-28 37 -48 58 -151 154 -67 62 -123 96 -240 146 -67 28 -89 33 -202 40 -81 5
-120 13 -158 31 -101 47 -226 71 -340 66 -16 -1 -102 0 -190 1 -88 1 -169 1
-180 -1z"/>
</g>
</svg>
